<?xml version="1.0" standalone="no"?>
<!DOCTYPE svg PUBLIC "-//W3C//DTD SVG 20010904//EN"
 "http://www.w3.org/TR/2001/REC-SVG-20010904/DTD/svg10.dtd">
<svg version="1.0" xmlns="http://www.w3.org/2000/svg"
 width="160.000000pt" height="160.000000pt" viewBox="0 0 160.000000 160.000000"
 preserveAspectRatio="xMidYMid meet">
<metadata>
Created by potrace 1.14, written by Peter Selinger 2001-2017
</metadata>
<g transform="translate(0.000000,160.000000) scale(0.100000,-0.100000)"
fill="#000000" stroke="none">
<path d="M800 1527 c-22 -11 -25 -19 -24 -67 1 -30 4 -74 8 -98 7 -48 -2 -48
-40 -2 -50 59 -168 102 -286 105 -136 4 -303 -36 -330 -78 -16 -26 46 -94 106
-116 23 -9 22 -11 -35 -70 -67 -68 -103 -140 -126 -244 -31 -150 -18 -288 41
-413 101 -213 551 -546 704 -521 147 25 331 136 497 302 102 103 149 170 190
272 30 74 36 101 41 197 6 126 -46 304 -109 373 -21 24 -23 22 28 38 12 3 12
10 2 39 -60 172 -406 239 -594 115 -37 -24 -43 -26 -44 -11 -1 9 -3 28 -4 42
-2 14 6 45 17 68 20 43 20 44 2 63 -16 16 -22 17 -44 6z"/>
</g>
</svg>
