<svg xmlns="http://www.w3.org/2000/svg" viewBox="0 0 92.48 48.05"><defs><style>.cls-1{fill:#384152;}</style></defs><g id="Layer_2" data-name="Layer 2"><g id="Layer_1-2" data-name="Layer 1"><path class="cls-1" d="M.21,22c-.68-3.82.37-6.26,2.13-6.58a2.22,2.22,0,0,1,2.51,1.79l.37,2.08c.11.61-.47.71-1,.8h0c-.35.06-.66.12-.81-.28a6.85,6.85,0,0,0-.11-1.5c-.11-.61-.24-.9-.66-.82-1.19.21-.65,3.39-.34,5.14.14.74.34,1.75,1.28,1.59,1.54-.28.34-2,1.12-2.3l.15,0c.84-.15,1.09-.19,1.22.57.25,1.37-.25,3.4-1.94,3.7a2.43,2.43,0,0,1-.81,0C1.47,25.82.56,23.94.21,22Z"/><path class="cls-1" d="M7.41,17.84C7.25,16.9,7.08,16,6.94,15a17.5,17.5,0,0,1-.58-2.65c-.11-.64-.15-1.28.15-1.34.71-.12,1.73-.25,1.87.11l2.26,14.29c.1.56-.32.66-.78.74-.63.11-.69,0-.81-.33C8.45,23.19,7.89,20.51,7.41,17.84Z"/><path class="cls-1" d="M11.44,16.17c-.08-.43.47-.55.8-.61s.88-.16,1,.34l1.84,7.54.12.69c0,.15-.23.28-.35.33-.53.09-1.38.45-1.57-.3L11.6,17.09Zm0-4.2c.61-.11.95.51,1,1a1,1,0,0,1-.78,1.16c-.5.09-.8-.38-.87-.81S10.84,12.08,11.47,12Z"/><path class="cls-1" d="M15.8,19.17c-.68-3.81.37-6.25,2.14-6.57a2.21,2.21,0,0,1,2.5,1.78l.37,2.09c.11.61-.47.71-.95.8h-.05c-.35.07-.65.12-.8-.27a8.28,8.28,0,0,0-.11-1.5c-.11-.61-.24-.9-.67-.83-1.19.21-.65,3.4-.33,5.15.13.74.34,1.75,1.27,1.58,1.54-.27.34-2,1.13-2.3l.15,0c.83-.15,1.08-.2,1.22.56.24,1.38-.25,3.41-1.94,3.71a2.81,2.81,0,0,1-.82,0C17.07,23,16.16,21.15,15.8,19.17Z"/><path class="cls-1" d="M25,18.64l.54,3.05c.06.28-.45.37-.58.39l-.1,0c-.4.07-1,.18-1.1-.35l-.33-1.86L22.16,8.67c-.08-.56-.08-1.27.68-1.4.18,0,1.47-.26,1.53.09l.08.48.13,4.34c0,.21.25,2.57.23,2.47.05.28.09.38.5.31a.31.31,0,0,0,.12-.05l.21-.3c.56-.81,1.47-2.13,2-2.22.25-.05,1.09-.2,1.16.23a.7.7,0,0,1-.05.3,27,27,0,0,1-1.88,3.62.3.3,0,0,0,0,.18c.05.26,0,.36.1.4l2.7,3.72c.06.07.06.09.09.22s-.17.37-.42.42c-.63.11-1.24.22-1.68-.34l-2.18-2.73a.28.28,0,0,0-.33-.12C25,18.31,24.93,18.51,25,18.64Z"/><path class="cls-1" d="M36.93,9.89l.53-.07c.48-.08.74-.23.67-.93,0-1.87-.81-3.66.45-3.88.61-.11,1.13-.1,1.26.64l0,2.22.1.69c.12,1,3-.46,3.22.82.12.66.16.89-.07,1.06-.21,0-1.12.15-1.3.18h-.1c-.5.1-1.44.26-1.48.9.23,1.72.68,5.28.69,5.2v0c0,.19.19,1.94,1,1.8s.42-2,.22-3.14l0-.17c-.1-.56.57-.74,1.08-.83.68-.12.81,0,.9.53.21,1.19,1,5.33-1.52,5.77-2.12.38-3.08-1.91-3.39-3.64l-.07-.41-.68-4.54c0-.11-.3-.37-.4-.35l-.84.12c-.38.07-.57-.87-.61-1.07A.82.82,0,0,1,36.93,9.89Z"/><path class="cls-1" d="M45.52,10.93c.47-2.76,1.09-3.4,2.86-3.66,2.47-.36,3.22,3.25,3.51,4.78l.07.38a12,12,0,0,1,0,2.75l-.07.3c-.35,1.56-.54,2.53-2.61,2.9-2.42.44-3.33-1.87-3.68-3.85A10.6,10.6,0,0,1,45.52,10.93Zm3.55,5.27c1.49-.27.87-3.6.75-4.26l0-.15c0-.44-.22-2.69-1.38-2.48-1.44.26-1,4.17-.92,4.78C47.65,15,47.91,16.4,49.07,16.2Z"/><path class="cls-1" d="M59.88,8.36C60.35,5.6,61,5,62.74,4.7,65.2,4.34,66,8,66.25,9.48l.07.38a12.05,12.05,0,0,1,0,2.75l-.08.3c-.34,1.56-.53,2.54-2.6,2.91C61.24,16.25,60.33,14,60,12A10.91,10.91,0,0,1,59.88,8.36Zm3.54,5.27c1.49-.26.87-3.59.75-4.25l0-.15c0-.44-.22-2.69-1.38-2.48-1.44.25-1,4.17-.92,4.78C62,12.39,62.26,13.84,63.42,13.63Z"/><path class="cls-1" d="M67.55,4.4c0-.6.5-.72,1-.81.25,0,.57,0,.63.34l.17,1a.38.38,0,0,0,.34.28A.35.35,0,0,0,69.88,5,2.79,2.79,0,0,1,71.71,3.6C73.32,3.31,74,5,74.23,6.33c.34,1.93,0,4.35-2,4.71-.36.06-.77-.08-1.17,0s-.35.69-.22,1.4L71.11,14c.2,1.1.6,2.18.79,3.27.1.56-.35.64-.88.74s-.89.15-1-.33L67.87,6.75l-.05-.25C67.77,6.19,67.58,4.71,67.55,4.4Zm4,5c1.28-.23,1.12-1.46,1-2.29-.12-.64-.37-1.3-1.25-1.15a1.72,1.72,0,0,0-1.26,2.27A1.34,1.34,0,0,0,71.6,9.39Z"/><path class="cls-1" d="M78.62,2.19c2.17-.39,3.28,1.48,3.61,3.34.28,1.52-.23,2-2.28,2.4-.45.08-.89.1-1.29.18s-.57.15-.45.86S79,12.06,80,11.89s.28-2.34,1.22-2.5l.07,0c.38-.06,1.09-.19,1.17.29.26,1.45-.43,4-2.15,4.27-2.42.43-4-3.19-4.38-5.28C75.47,6.31,75.69,2.71,78.62,2.19Zm-.17,4c.25,0,1.41-.12,1.31-.65l-.16-.89a.85.85,0,0,0-1-.66,1.46,1.46,0,0,0-.95,1.79C77.73,6.25,78.09,6.27,78.45,6.2Z"/><path class="cls-1" d="M89.68,5c-.24-1.32-.21-2.8-1.3-2.6C86.92,2.62,86.9,4.85,87.05,6l.68,5.7c0,.23,0,.48-.27.52.05,0-1.73.42-2-.35-.38-2.16-.65-4-1-6-.17-1-.39-1.92-.56-2.89-.12-.63-.43-1.67,0-1.75L84.94,1a.38.38,0,0,1,.44.31,6.87,6.87,0,0,1,.09,1v0c0,.15.1.56.3.52s.67-1,.86-1.2a4,4,0,0,1,2-1.59c1.81-.33,2.4,2.22,2.67,3.45,0,0,.4,1.95.54,2.74.28,1.58.47,3.2.62,4.77,0,.31-.08.43-.49.5s-1.23.36-1.38-.43C90.26,9.05,90,7,89.68,5Z"/><path class="cls-1" d="M54.32,26.92a34.57,34.57,0,0,0,7.94,12c3.56,3.53,7.81,6.26,12,9,.9.58,1.79-.53,1.37-1.37-1.88-3.75-3.34-7.7-5.22-11.45-.5-1-2.23-.3-1.83.77,1.48,3.94,3.74,7.52,5.22,11.45L75,46.06c-2.55-.57-5.09-1.22-7.66-1.76s-5.2-.86-7.82-1.15c-1.28-.14-1.27,1.86,0,2A137.73,137.73,0,0,1,74.49,48c.68.15,1.52-.47,1.23-1.23C74.24,42.82,72,39.25,70.5,35.31l-1.83.77c1.88,3.75,3.34,7.7,5.22,11.45l1.37-1.37a74.12,74.12,0,0,1-11.34-8.43,32.18,32.18,0,0,1-7.67-11.35c-.45-1.19-2.39-.67-1.93.54Z"/></g></g></svg>